<svg width="428" height="216" viewBox="0 0 428 216" fill="none" xmlns="http://www.w3.org/2000/svg">
<path fill-rule="evenodd" clip-rule="evenodd" d="M211.728 0.428589V17.3568H204.139V83.2322H194.17V62.9453H188.919V58.0451L177.435 62.9453H174.621V50.7584L160.88 33.0949L147.139 50.7584V92.202H140.688V100.256H131.171V67.3864H123.283L123.611 53.7484H114.483V49.8423H105.234L103.811 26.2217L102.389 49.8423H100.609V53.7484H98.2092L99.0887 90.2724H97.385V74.1588L78.262 62.9453V83.2322H59.1382V67.3864H47.3335V58.0451L27.1122 72.2216V58.0451L0 77.0528V215.963H20.2206H27.1122H46.472H47.3335H59.1382H78.262H97.385H101.348H118.504H120.471H130.065H131.171H147.139H157.547H174.621H194.17H204.139H221.035H228.258H245.2H249.794H265.352H273.823H287.507H292.465H299.522H311.536H314.621H326.635H333.118H338.65H360.23H369.171H380.8H392.43H401.383H404.059H417.048H420.507H432.209V80.5839H423L423.646 53.7484H404.059V14.9026H392.43V23.16H380.8V30.7201H369.171V69.697H360.23V51.5751H357.046V49.5765H336.303V51.5751H333.118V89.3625H326.635V40.7979H323.45V38.7994H302.707V40.7979H299.522V68.7636H292.465V51.5751H289.281V49.5765H268.538V51.5751H265.352V58.0451L258.696 65.1634V77.0976H249.794V69.697H245.2V51.5751H228.258V40.8463L221.035 34.7269V17.3568H213.445V0.428589H211.728Z" fill="#5470F2" fill-opacity="0.2"/>
<path fill-rule="evenodd" clip-rule="evenodd" d="M290.845 77.9753V88.813H285.979V130.987H279.588V117.999H276.221V114.862L268.858 117.999H267.054V110.197L258.243 98.8887L249.433 110.197V136.73H245.298V141.886H239.195V120.842H234.138L234.348 112.111H228.496V109.611H222.566L221.653 94.4884L220.741 109.611H219.601V112.111H218.062L218.625 135.494H217.533V125.178L205.272 117.999V130.987H193.011V120.842H185.442V114.862L172.477 123.938V114.862L155.094 127.031V215.963H168.058H172.477H184.89H185.442H193.011H205.272H217.533H220.074H231.074H232.335H238.486H239.195H249.433H256.107H267.054H279.588H285.979H296.813H301.444H312.307H315.252H325.227H330.658H339.432H342.611H347.136H354.839H356.816H364.519H368.676H372.223H386.059H391.792H399.248H406.705H412.445H414.161H422.489H424.706H432.209V129.292H426.305L426.719 112.111H414.161V87.2418H406.705V92.5283H399.248V97.3683H391.792V122.322H386.059V110.72H384.018V109.44H370.718V110.72H368.676V134.912H364.519V103.82H362.477V102.541H349.178V103.82H347.136V121.724H342.611V110.72H340.569V109.44H327.27V110.72H325.227V114.862L320.959 119.419V127.06H315.252V122.322H312.307V110.72H301.444V103.851L296.813 99.9335V88.813H291.946V77.9753H290.845Z" fill="#5470F2" fill-opacity="0.8"/>
<path fill-rule="evenodd" clip-rule="evenodd" d="M107.623 109.906V118.147H111.327V150.213H116.194V140.338H118.756V137.953L124.362 140.338H125.736V134.406L132.443 125.807L139.151 134.406V154.579H142.299V158.499H146.945V142.5H150.795L150.635 135.861H155.091V133.96H159.605L160.3 122.462L160.994 133.96H161.863V135.861H163.034L162.605 153.64H163.437V145.796L172.771 140.338V150.213H182.106V142.5H187.868V137.953L197.739 144.853V137.953L210.973 147.205V214.823H201.103H197.739H188.289H187.868H182.106H172.771H163.437H161.502H153.128H152.168H147.485H146.945H139.151H134.07H125.736H116.194H111.327H103.08H99.5541H91.2841H89.0417H81.4475H77.3125H70.6329H68.213H64.7681H58.9037H57.398H51.5336H48.3689H45.6688H35.1351H30.7707H25.0943H19.4172H15.0469H13.7408H7.40054H5.71246H0V148.924H4.4953L4.18016 135.861H13.7408V116.952H19.4172V120.971H25.0943V124.651H30.7707V143.624H35.1351V134.803H36.6891V133.83H46.8145V134.803H48.3689V153.197H51.5336V129.557H53.0883V128.584H63.2134V129.557H64.7681V143.17H68.213V134.803H69.7673V133.83H79.8924V134.803H81.4475V137.953L84.6966 141.418V147.227H89.0417V143.624H91.2841V134.803H99.5541V129.581L103.08 126.602V118.147H106.785V109.906H107.623Z" fill="#5470F2" fill-opacity="0.2"/>
<path fill-rule="evenodd" clip-rule="evenodd" d="M163.686 214.135H124.008C119.327 214.135 115.498 210.305 115.498 205.625V110.527C115.498 105.846 119.327 102.016 124.008 102.016H163.686C168.367 102.016 172.196 105.846 172.196 110.527V205.625C172.196 210.305 168.367 214.135 163.686 214.135Z" fill="white" stroke="#37334A" stroke-width="2.28079" stroke-linecap="round" stroke-linejoin="round"/>
<path fill-rule="evenodd" clip-rule="evenodd" d="M163.686 214.135H124.008C119.327 214.135 115.498 210.305 115.498 205.625V110.527C115.498 105.846 119.327 102.016 124.008 102.016H163.686C168.367 102.016 172.196 105.846 172.196 110.527V205.625C172.196 210.305 168.367 214.135 163.686 214.135Z" stroke="#37334A" stroke-width="2.28079" stroke-linecap="round" stroke-linejoin="round"/>
<path fill-rule="evenodd" clip-rule="evenodd" d="M148.234 205.978C148.234 208.401 146.269 210.365 143.847 210.365C141.423 210.365 139.46 208.401 139.46 205.978C139.46 203.554 141.423 201.591 143.847 201.591C146.269 201.591 148.234 203.554 148.234 205.978Z" stroke="#37334A" stroke-width="2.28079" stroke-linecap="round" stroke-linejoin="round"/>
<path d="M141.345 107.222H149.986" stroke="#37334A" stroke-width="2.28079" stroke-linecap="round" stroke-linejoin="round"/>
<path d="M137.707 107.222H138.817" stroke="#37334A" stroke-width="2.28079" stroke-linecap="round" stroke-linejoin="round"/>
<path fill-rule="evenodd" clip-rule="evenodd" d="M265.402 161.85C264.902 156.897 256.639 158.802 252.257 159.183C240.255 132.704 231.683 134.609 228.064 134.609C224.444 134.609 196.44 134.418 185.011 134.609C173.58 134.799 166.151 155.373 163.293 159.183C163.293 159.183 150.887 155.85 150.339 160.326C149.925 164.517 152.435 165.279 157.96 166.422C149.959 198.808 159.293 200.522 159.293 200.522V210.619C159.293 214.048 163.293 214.135 163.293 214.135H171.866C174.343 214.135 174.343 209.856 174.343 209.856V201.474H241.208V210.619C241.208 215 245.589 214.048 245.589 214.048H252.638C256.257 214.048 256.639 210.238 256.639 210.238V200.522C265.021 192.902 258.924 168.898 257.972 165.851C260.449 165.66 265.691 164.718 265.402 161.85Z" fill="#00BFCC"/>
<path fill-rule="evenodd" clip-rule="evenodd" d="M172.455 156.513C173.321 154.956 174.447 152.508 174.447 152.508C176.542 148.127 178.932 142.034 185.98 142.034H226.938C230.558 142.034 236.082 141.653 241.416 152.893C244.083 158.037 247.512 163.37 240.083 163.37H179.503C175.884 163.37 168.016 164.627 172.455 156.513Z" fill="#FDFFFE"/>
<path fill-rule="evenodd" clip-rule="evenodd" d="M174.576 193.029C171.814 193.029 166.195 191.696 163.337 190.172C160.479 188.648 161.432 182.932 161.718 182.218C162.003 181.504 163.718 180.266 165.242 181.028C166.766 181.79 170.221 182.611 173.91 183.409C178.246 184.347 179.053 186.647 179.529 189.209C180.006 191.77 177.339 193.029 174.576 193.029Z" fill="#FDFFFE"/>
<path fill-rule="evenodd" clip-rule="evenodd" d="M224.052 193.614C217.575 194.186 200.43 193.995 194.715 193.614C189 193.233 183.094 194.186 185 185.423C193.953 186.375 223.29 186.185 230.529 185.423C232.053 189.423 230.529 193.043 224.052 193.614Z" fill="#FDFFFE"/>
<path fill-rule="evenodd" clip-rule="evenodd" d="M253.274 190.172C250.417 191.696 244.797 193.029 242.034 193.029C239.273 193.029 236.605 191.77 237.082 189.209C237.559 186.648 238.366 184.347 242.702 183.409C246.391 182.611 249.845 181.79 251.369 181.027C252.894 180.266 254.608 181.504 254.894 182.218C255.179 182.932 256.132 188.648 253.274 190.172Z" fill="#FDFFFE"/>
<path d="M103.026 214.135H278.566" stroke="#37334A" stroke-width="2.28079" stroke-linecap="round" stroke-linejoin="round"/>
<path d="M282.339 214.135H284.463" stroke="#37334A" stroke-width="2.28079" stroke-linecap="round" stroke-linejoin="round"/>
<path d="M288.759 214.135H315.031C338.577 214.135 344.515 212.736 344.515 205.48C344.515 198.557 338.742 198.223 314.663 198.223C298.501 198.223 290.915 197.728 290.915 190.636C290.915 182.096 305.313 182.929 318.794 183.17" stroke="#37334A" stroke-width="2.28079" stroke-linecap="round" stroke-linejoin="round" stroke-dasharray="6.91 6.91"/>
<path d="M320.946 183.202C321.661 183.21 322.372 183.215 323.075 183.215" stroke="#37334A" stroke-width="2.28079" stroke-linecap="round" stroke-linejoin="round"/>
<path fill-rule="evenodd" clip-rule="evenodd" d="M322.05 152.074C318.031 152.074 314.873 148.979 314.873 145.041C314.873 141.103 318.031 138.008 322.05 138.008C326.068 138.008 329.226 141.103 329.226 145.041C329.226 148.979 326.068 152.074 322.05 152.074ZM322.05 125.349C310.998 125.349 301.956 134.21 301.956 145.041C301.956 159.81 322.05 181.612 322.05 181.612C322.05 181.612 342.144 159.81 342.144 145.041C342.144 134.21 333.102 125.349 322.05 125.349Z" fill="white"/>
<path d="M322.05 181.612L321.211 182.385C321.427 182.619 321.731 182.752 322.05 182.752C322.368 182.752 322.672 182.619 322.888 182.385L322.05 181.612ZM322.05 150.933C318.639 150.933 316.014 148.327 316.014 145.041H313.733C313.733 149.63 317.423 153.214 322.05 153.214V150.933ZM316.014 145.041C316.014 141.755 318.639 139.149 322.05 139.149V136.868C317.424 136.868 313.733 140.452 313.733 145.041H316.014ZM322.05 139.149C325.46 139.149 328.086 141.755 328.086 145.041H330.367C330.367 140.452 326.676 136.868 322.05 136.868V139.149ZM328.086 145.041C328.086 148.327 325.46 150.933 322.05 150.933V153.214C326.676 153.214 330.367 149.63 330.367 145.041H328.086ZM322.05 124.209C310.39 124.209 300.816 133.558 300.816 145.041H303.096C303.096 134.861 311.606 126.489 322.05 126.489V124.209ZM300.816 145.041C300.816 148.968 302.145 153.273 304.059 157.46C305.979 161.662 308.53 165.831 311.064 169.511C313.6 173.195 316.133 176.409 318.032 178.702C318.982 179.849 319.774 180.767 320.33 181.399C320.608 181.715 320.827 181.96 320.977 182.127C321.052 182.21 321.11 182.274 321.149 182.317C321.169 182.339 321.184 182.355 321.195 182.367C321.2 182.372 321.204 182.377 321.207 182.38C321.208 182.381 321.209 182.382 321.21 182.383C321.21 182.384 321.211 182.384 321.211 182.384C321.211 182.385 321.211 182.385 322.05 181.612C322.888 180.839 322.888 180.839 322.888 180.839C322.888 180.839 322.888 180.839 322.888 180.839C322.888 180.838 322.887 180.837 322.886 180.836C322.884 180.834 322.88 180.83 322.876 180.825C322.867 180.816 322.853 180.801 322.835 180.781C322.798 180.74 322.743 180.68 322.671 180.6C322.527 180.44 322.314 180.202 322.043 179.893C321.5 179.276 320.722 178.375 319.788 177.247C317.92 174.99 315.43 171.831 312.942 168.218C310.452 164.602 307.98 160.551 306.133 156.511C304.279 152.456 303.096 148.497 303.096 145.041H300.816ZM322.05 181.612C322.888 182.385 322.889 182.385 322.889 182.384C322.889 182.384 322.889 182.384 322.89 182.383C322.891 182.382 322.892 182.381 322.893 182.38C322.896 182.377 322.9 182.372 322.905 182.367C322.915 182.355 322.93 182.339 322.95 182.317C322.99 182.274 323.048 182.21 323.123 182.127C323.273 181.96 323.492 181.715 323.77 181.399C324.326 180.767 325.118 179.849 326.068 178.702C327.967 176.409 330.5 173.195 333.036 169.511C335.57 165.831 338.12 161.662 340.041 157.46C341.955 153.273 343.284 148.968 343.284 145.041H341.003C341.003 148.497 339.821 152.456 337.967 156.511C336.12 160.551 333.647 164.602 331.157 168.218C328.67 171.831 326.18 174.99 324.311 177.247C323.377 178.375 322.6 179.276 322.057 179.893C321.785 180.202 321.573 180.44 321.428 180.6C321.356 180.68 321.301 180.74 321.265 180.781C321.246 180.801 321.233 180.816 321.224 180.825C321.219 180.83 321.216 180.834 321.214 180.836C321.213 180.837 321.212 180.838 321.212 180.839C321.211 180.839 321.211 180.839 321.211 180.839C321.211 180.839 321.211 180.839 322.05 181.612ZM343.284 145.041C343.284 133.558 333.71 124.209 322.05 124.209V126.489C332.494 126.489 341.003 134.861 341.003 145.041H343.284Z" fill="#37334A"/>
<path d="M322.05 181.612L321.211 182.385C321.427 182.619 321.731 182.752 322.05 182.752C322.368 182.752 322.672 182.619 322.888 182.385L322.05 181.612ZM322.05 150.933C318.639 150.933 316.014 148.327 316.014 145.041H313.733C313.733 149.63 317.423 153.214 322.05 153.214V150.933ZM316.014 145.041C316.014 141.755 318.639 139.149 322.05 139.149V136.868C317.424 136.868 313.733 140.452 313.733 145.041H316.014ZM322.05 139.149C325.46 139.149 328.086 141.755 328.086 145.041H330.367C330.367 140.452 326.676 136.868 322.05 136.868V139.149ZM328.086 145.041C328.086 148.327 325.46 150.933 322.05 150.933V153.214C326.676 153.214 330.367 149.63 330.367 145.041H328.086ZM322.05 124.209C310.39 124.209 300.816 133.558 300.816 145.041H303.096C303.096 134.861 311.606 126.489 322.05 126.489V124.209ZM300.816 145.041C300.816 148.968 302.145 153.273 304.059 157.46C305.979 161.662 308.53 165.831 311.064 169.511C313.6 173.195 316.133 176.409 318.032 178.702C318.982 179.849 319.774 180.767 320.33 181.399C320.608 181.715 320.827 181.96 320.977 182.127C321.052 182.21 321.11 182.274 321.149 182.317C321.169 182.339 321.184 182.355 321.195 182.367C321.2 182.372 321.204 182.377 321.207 182.38C321.208 182.381 321.209 182.382 321.21 182.383C321.21 182.384 321.211 182.384 321.211 182.384C321.211 182.385 321.211 182.385 322.05 181.612C322.888 180.839 322.888 180.839 322.888 180.839C322.888 180.839 322.888 180.839 322.888 180.839C322.888 180.838 322.887 180.837 322.886 180.836C322.884 180.834 322.88 180.83 322.876 180.825C322.867 180.816 322.853 180.801 322.835 180.781C322.798 180.74 322.743 180.68 322.671 180.6C322.527 180.44 322.314 180.202 322.043 179.893C321.5 179.276 320.722 178.375 319.788 177.247C317.92 174.99 315.43 171.831 312.942 168.218C310.452 164.602 307.98 160.551 306.133 156.511C304.279 152.456 303.096 148.497 303.096 145.041H300.816ZM322.05 181.612C322.888 182.385 322.889 182.385 322.889 182.384C322.889 182.384 322.889 182.384 322.89 182.383C322.891 182.382 322.892 182.381 322.893 182.38C322.896 182.377 322.9 182.372 322.905 182.367C322.915 182.355 322.93 182.339 322.95 182.317C322.99 182.274 323.048 182.21 323.123 182.127C323.273 181.96 323.492 181.715 323.77 181.399C324.326 180.767 325.118 179.849 326.068 178.702C327.967 176.409 330.5 173.195 333.036 169.511C335.57 165.831 338.12 161.662 340.041 157.46C341.955 153.273 343.284 148.968 343.284 145.041H341.003C341.003 148.497 339.821 152.456 337.967 156.511C336.12 160.551 333.647 164.602 331.157 168.218C328.67 171.831 326.18 174.99 324.311 177.247C323.377 178.375 322.6 179.276 322.057 179.893C321.785 180.202 321.573 180.44 321.428 180.6C321.356 180.68 321.301 180.74 321.265 180.781C321.246 180.801 321.233 180.816 321.224 180.825C321.219 180.83 321.216 180.834 321.214 180.836C321.213 180.837 321.212 180.838 321.212 180.839C321.211 180.839 321.211 180.839 321.211 180.839C321.211 180.839 321.211 180.839 322.05 181.612ZM343.284 145.041C343.284 133.558 333.71 124.209 322.05 124.209V126.489C332.494 126.489 341.003 134.861 341.003 145.041H343.284Z" fill="#37334A"/>
<path fill-rule="evenodd" clip-rule="evenodd" d="M155.087 142.889C155.087 146.03 153.797 148.875 151.715 150.911C149.686 152.904 146.911 154.129 143.847 154.129C140.788 154.129 138.008 152.904 135.985 150.911C133.897 148.875 132.607 146.03 132.607 142.889C132.607 142.433 132.636 141.984 132.69 141.546C133.353 135.974 138.097 131.649 143.847 131.649C149.603 131.649 154.347 135.974 155.004 141.552C155.057 141.99 155.087 142.433 155.087 142.889Z" stroke="#37334A" stroke-width="2.28079" stroke-linecap="round" stroke-linejoin="round"/>
<path fill-rule="evenodd" clip-rule="evenodd" d="M155.004 141.552C151.91 143.167 148.042 144.125 143.847 144.125C139.653 144.125 135.783 143.167 132.69 141.546C133.353 135.973 138.097 131.649 143.847 131.649C149.603 131.649 154.347 135.973 155.004 141.552Z" stroke="#37334A" stroke-width="2.28079" stroke-linecap="round" stroke-linejoin="round"/>
<path fill-rule="evenodd" clip-rule="evenodd" d="M151.715 150.911C149.686 152.904 146.911 154.129 143.847 154.129C140.788 154.129 138.008 152.904 135.985 150.911C136.546 147.071 139.853 144.126 143.847 144.126C147.84 144.126 151.147 147.071 151.715 150.911Z" stroke="#37334A" stroke-width="2.28079" stroke-linecap="round" stroke-linejoin="round"/>
</svg>
